<svg width="24" height="19" viewBox="0 0 24 19" fill="none" xmlns="http://www.w3.org/2000/svg">
<path d="M6.928 10.176C7.52533 10.5173 7.99467 11.008 8.336 11.648C8.72 12.2453 8.912 12.928 8.912 13.696C8.912 15.0187 8.464 16.128 7.568 17.024C6.71467 17.92 5.66933 18.368 4.432 18.368C3.28 18.368 2.29867 17.984 1.488 17.216C0.72 16.448 0.336 15.4667 0.336 14.272C0.336 13.632 0.442667 13.0347 0.656 12.48C0.869334 11.8827 1.25333 11.0933 1.808 10.112L7.184 0.511997H11.216L6.928 10.176ZM19.024 10.176C19.6213 10.5173 20.0907 11.008 20.432 11.648C20.816 12.2453 21.008 12.928 21.008 13.696C21.008 15.0187 20.56 16.128 19.664 17.024C18.8107 17.92 17.7653 18.368 16.528 18.368C15.376 18.368 14.3947 17.984 13.584 17.216C12.816 16.448 12.432 15.4667 12.432 14.272C12.432 13.632 12.5387 13.0347 12.752 12.48C12.9653 11.8827 13.3493 11.0933 13.904 10.112L19.28 0.511997H23.312L19.024 10.176Z" fill="#696059"/>
</svg>
