<svg width="23" height="18" viewBox="0 0 23 18" fill="none" xmlns="http://www.w3.org/2000/svg">
<path d="M6.8 0.127998C7.952 0.127998 8.912 0.511998 9.68 1.28C10.448 2.048 10.832 3.02933 10.832 4.224C10.832 4.90666 10.7253 5.54666 10.512 6.144C10.2987 6.69866 9.936 7.44533 9.424 8.384L4.048 17.984H0.0160003L4.304 8.384C3.664 8.04266 3.152 7.552 2.768 6.912C2.42667 6.22933 2.256 5.504 2.256 4.736C2.256 3.41333 2.704 2.32533 3.6 1.472C4.496 0.575998 5.56267 0.127998 6.8 0.127998ZM18.896 0.127998C20.048 0.127998 21.008 0.511998 21.776 1.28C22.544 2.048 22.928 3.02933 22.928 4.224C22.928 4.90666 22.8213 5.54666 22.608 6.144C22.3947 6.69866 22.032 7.44533 21.52 8.384L16.144 17.984H12.112L16.4 8.384C15.76 8.04266 15.248 7.552 14.864 6.912C14.5227 6.22933 14.352 5.504 14.352 4.736C14.352 3.41333 14.8 2.32533 15.696 1.472C16.592 0.575998 17.6587 0.127998 18.896 0.127998Z" fill="#696059" fill-opacity="0.5"/>
</svg>
